<svg width="512" height="512" viewBox="0 0 512 512" fill="none" xmlns="http://www.w3.org/2000/svg">
  <defs>
    <linearGradient id="bg" x1="72" y1="56" x2="428" y2="456" gradientUnits="userSpaceOnUse">
      <stop stop-color="#12211B"/>
      <stop offset="1" stop-color="#09110D"/>
    </linearGradient>
    <linearGradient id="glow" x1="256" y1="92" x2="256" y2="420" gradientUnits="userSpaceOnUse">
      <stop stop-color="#4BFFB2"/>
      <stop offset="1" stop-color="#18C37E"/>
    </linearGradient>
    <linearGradient id="pathGlow" x1="256" y1="296" x2="256" y2="436" gradientUnits="userSpaceOnUse">
      <stop stop-color="#6BFFD0" stop-opacity="0.95"/>
      <stop offset="1" stop-color="#19B672" stop-opacity="0.25"/>
    </linearGradient>
    <filter id="soft" x="56" y="40" width="400" height="432" filterUnits="userSpaceOnUse" color-interpolation-filters="sRGB">
      <feGaussianBlur stdDeviation="12"/>
    </filter>
  </defs>

  <rect x="24" y="24" width="464" height="464" rx="104" fill="url(#bg)"/>
  <rect x="24" y="24" width="464" height="464" rx="104" stroke="#2EF0A1" stroke-opacity="0.16" stroke-width="2"/>

  <g filter="url(#soft)" opacity="0.55">
    <path d="M126 384C167.667 330 211 303 256 303C301 303 344.333 330 386 384" stroke="#43F6AB" stroke-width="20" stroke-linecap="round"/>
  </g>

  <path d="M137 395C180.333 336.333 219.999 307 256 307C292.001 307 331.667 336.333 375 395" stroke="url(#pathGlow)" stroke-width="36" stroke-linecap="round"/>

  <path
    d="M149 376V192C149 132.905 196.905 85 256 85C315.095 85 363 132.905 363 192V376"
    stroke="url(#glow)"
    stroke-width="26"
    stroke-linecap="round"
    stroke-linejoin="round"
  />

  <path d="M193 302L256 186L319 302" stroke="#90FFD8" stroke-width="12" stroke-linecap="round" stroke-linejoin="round"/>
  <path d="M193 302L224 354" stroke="#66FBC1" stroke-width="10" stroke-linecap="round"/>
  <path d="M319 302L288 354" stroke="#66FBC1" stroke-width="10" stroke-linecap="round"/>

  <circle cx="256" cy="186" r="27" fill="#78FFD1"/>
  <circle cx="193" cy="302" r="27" fill="#54F3B1"/>
  <circle cx="319" cy="302" r="27" fill="#54F3B1"/>

  <circle cx="256" cy="186" r="38" stroke="#83FFD3" stroke-opacity="0.18" stroke-width="2"/>
  <circle cx="193" cy="302" r="38" stroke="#83FFD3" stroke-opacity="0.14" stroke-width="2"/>
  <circle cx="319" cy="302" r="38" stroke="#83FFD3" stroke-opacity="0.14" stroke-width="2"/>
</svg>
